<svg width="84" height="50" viewBox="0 0 84 50" fill="none" xmlns="http://www.w3.org/2000/svg">
<path d="M80.7487 12.1321C78.9263 8.6275 76.2046 5.69836 72.8766 3.66012C69.5487 1.62188 65.7407 0.551775 61.8627 0.565064H2.04422C1.63902 0.568541 1.2438 0.694203 0.907961 0.926348C0.57212 1.15849 0.310553 1.48682 0.155947 1.87031C0.00134035 2.25379 -0.0394476 2.67542 0.0386801 3.0825C0.116808 3.48958 0.310386 3.86406 0.595223 4.15915L13.6292 17.5823C14.1991 18.1685 14.8765 18.6336 15.6225 18.9509C16.3685 19.2682 17.1684 19.4315 17.9762 19.4313H60.1477C61.5902 19.4166 62.9794 19.9891 64.0096 21.023C65.0398 22.0569 65.6266 23.4674 65.641 24.9443C65.6554 26.4211 65.0961 27.8434 64.0863 28.8981C63.0765 29.9528 61.6987 30.5536 60.2562 30.5683H31.1852C30.7797 30.5711 30.384 30.6963 30.0477 30.9281C29.7113 31.16 29.4492 31.4883 29.2942 31.8719C29.1391 32.2555 29.098 32.6775 29.176 33.0849C29.2541 33.4923 29.4477 33.8671 29.7327 34.1624L42.7702 47.5891C43.3399 48.1756 44.0173 48.6409 44.7633 48.9583C45.5094 49.2756 46.3094 49.4387 47.1172 49.4381H60.2667C77.3712 49.4381 90.3107 30.7152 80.7487 12.1249" fill="#1E4648"/>
</svg>
